HIERARCHY
ROOT Hips
{
  OFFSET 0.0 0.0 0.0
  CHANNELS 6 XPOSITION YPOSITION ZPOSITION ZROTATION XROTATION YROTATION 
  JOINT LeftUpLeg
  {
    OFFSET 0.08945800000000001 -0.0866707 0.0010165200000000001
    CHANNELS 3 ZROTATION XROTATION YROTATION 
    JOINT LeftLeg
    {
      OFFSET 0.0 -0.444227 0.013727000000000001
      CHANNELS 3 ZROTATION XROTATION YROTATION 
      JOINT LeftFoot
      {
        OFFSET -0.0025354900000000005 -0.42092399999999996 -0.014605900000000002
        CHANNELS 3 ZROTATION XROTATION YROTATION 
        End Site
        {
          OFFSET -0.0004 -0.0441509 0.08499100000000001
        }
      }
    }
  }
  JOINT Spine
  {
    OFFSET 0.0 0.118905 0.0
    CHANNELS 3 ZROTATION XROTATION YROTATION 
    JOINT Spine1
    {
      OFFSET 0.0 0.25657399999999997 0.00127663
      CHANNELS 3 ZROTATION XROTATION YROTATION 
      End Site
      {
        OFFSET -0.0029 0.21508359999999999 0.02525291
      }
      JOINT RightArm
      {
        OFFSET -0.162727 -0.05365632 0.0010212299999999997
        CHANNELS 3 ZROTATION XROTATION YROTATION 
        JOINT RightForeArm
        {
          OFFSET -0.26364 0.00099144 -0.0142434
          CHANNELS 3 ZROTATION XROTATION YROTATION 
          End Site
          {
            OFFSET -0.220324 0.0008536199999999999 0.010221599999999999
          }
        }
      }
      JOINT LeftArm
      {
        OFFSET 0.162727 -0.053656319900000006 0.0010212299999999997
        CHANNELS 3 ZROTATION XROTATION YROTATION 
        JOINT LeftForeArm
        {
          OFFSET 0.26259699999999997 0.00099144 -0.0142434
          CHANNELS 3 ZROTATION XROTATION YROTATION 
          End Site
          {
            OFFSET 0.220902 0.0008536199999999999 0.010221599999999999
          }
        }
      }
    }
  }
  JOINT RightUpLeg
  {
    OFFSET -0.08945800000000001 -0.0866707 0.0010165200000000001
    CHANNELS 3 ZROTATION XROTATION YROTATION 
    JOINT RightLeg
    {
      OFFSET 0.0 -0.444227 0.013727000000000001
      CHANNELS 3 ZROTATION XROTATION YROTATION 
      JOINT RightFoot
      {
        OFFSET 0.0025354900000000005 -0.42092399999999996 -0.014605900000000002
        CHANNELS 3 ZROTATION XROTATION YROTATION 
        End Site
        {
          OFFSET 0.0004 -0.0441509 0.08499100000000001
        }
      }
    }
  }
}
MOTION
Frames: 11
Frame Time: 0.033333
0.7057370000000001 0.9807554922007649 0.045016999999999995 -36.8920988394758 9.40317009545439 -75.06810248818475 13.490199907986403 16.211201278025975 -0.16032200215930775 1.3967699500079052 43.432100592411395 20.687200118506457 -1.0652339550776615 -28.15520430604605 -0.025492889001912496 2.7164499027314037 14.776398807007029 -0.7083259951757889 2.0908099108435247 5.518409931889959 -0.22301698890172916 72.92923557978443 -28.65279383236523 -13.670784133226016 5.990399909199935 29.447998606483964 2.8825598899027023 -65.23819668753995 -0.7945963536740744 -11.061137898546102 -29.088600882547063 5.548549849149933 -51.0691980656857 1.7007499736185556 -67.19559913007137 -5.312929667125649 -174.43300468442408 85.9453973074835 170.6799933204205 18.36629330079966 9.978299344326144 -3.5040166043673597 
0.6989369999999999 0.9772024922007649 0.045353899999999996 -35.51509855185538 8.95608981804745 -75.52179780380285 12.717999210992271 15.018499984780007 0.6423340414364479 1.407070088719696 44.42160034275489 20.222299877554956 -1.8397289553026825 -29.156892528963436 -0.15464716883587176 1.34033006918368 12.131300475440163 -0.23497899801594868 2.7388499350012836 6.655129714038032 -0.5608329692478294 72.0705032161954 -29.016798518897303 -14.697358150384348 5.813790000283623 29.25260055470824 3.148439944384258 -65.03195229536225 -1.2066422429504915 -6.960115589725672 -31.304201551177897 5.538419824837158 -52.81360105895027 5.040189968283285 -64.95059791215823 -1.9087098104949918 -179.04100546835153 73.87559927042471 -179.68499668443533 18.96010994724057 11.53225275786867 -3.8625838199898697 
0.693012 0.9721024922007648 0.045320099999999995 -34.04159793654644 8.047020667822727 -76.22609959025789 11.31519959132942 13.678999997023896 1.552469981832164 1.4341399426694548 45.6949012833016 19.927201554464553 -2.5013081219426994 -30.194360697847937 -0.2800604876938542 -0.2933430178345605 9.85148066068558 0.21409801582573543 2.9051797688864918 7.525030290693672 -0.8526459713474542 71.49821532601838 -29.48288038257522 -15.686412230884507 5.513250150858838 28.83159793955241 3.8640301125466197 -63.98403735214221 -0.9893095722637997 -3.0828048146681972 -32.57370149145149 6.036720117716846 -54.327498828105256 7.2283004061652845 -62.40590165384325 0.894128004693616 -179.68899917528898 62.536897851934924 -174.9760047234401 20.45627996040479 15.704983515237771 -4.885596747269686 
0.689509 0.9669114922007649 0.0453457 -32.687997877022475 7.24778010567816 -77.00329998572447 9.99602966163785 12.253999701237564 2.446049970566592 1.4678699781119164 46.98689986670121 19.7816007043801 -2.956932966001325 -31.06342030746202 -0.3779556413965165 -1.1775200238768497 7.984200002931534 0.6195819876200478 2.5044600408012485 8.380479894612858 -0.921686003725619 71.12754778995095 -30.031409459724358 -16.65696162137581 5.190930108831351 28.09680106600056 5.148280273219675 -62.539828003088864 0.04696484097036386 -0.4045453010311117 -32.52899790333375 6.631600139234161 -55.02050006657851 8.671430585329768 -60.39079777320356 3.308309913418515 179.96799874250564 52.82800251281524 -170.9150064693823 23.463776176501483 21.555540850710397 -6.774598687244841 
0.687709 0.9626984922007649 0.0455683 -31.665101916732198 6.731079710061281 -77.53080232551372 9.17535938097237 11.022399626894728 3.205200097047533 1.4929500058573801 48.06400020824471 19.566500971943473 -3.240160206870832 -31.735087450062736 -0.44612858659563354 -1.2428799183137 6.7380597365062105 0.9203800502119714 1.829000008777062 9.009330288854054 -0.8148360184538206 70.75426429143141 -30.36905303115477 -17.599087179636104 4.958430042597294 27.304400084536116 6.909840274792501 -61.32259267034421 1.2856256967388728 0.783361439541344 -31.688000125924667 6.888050263792867 -54.767100048371034 9.23178015861126 -59.51430008758334 5.056549552005935 179.755006123428 45.56699916090394 -165.80900293269087 27.089524040794807 26.871711015710392 -9.074442482211786 
0.686996 0.9603364922007648 0.046269700000000004 -31.220398545156424 6.391160404976787 -77.59109923550659 8.773819389856492 10.408100096906598 3.5817601653779723 1.502489859137184 48.66319904375159 19.329898096452354 -3.2973670965945083 -32.12627628949146 -0.46692661934002816 -0.9472880073340598 6.4895599521413985 0.976540000001932 1.3627599835311788 9.11695016451136 -0.7422250244393555 70.47322932784208 -30.236779587688304 -18.08837119592455 4.815889971034651 26.631098819176476 8.619960841065492 -60.69485730448502 1.7236505306885506 0.9670067634678867 -30.654998900757352 6.923269707361215 -54.08219941425342 8.31362002660125 -60.0850989965213 4.9068898620072 179.62099781191233 42.2374014688332 -161.5589996839205 28.90725594498864 29.343206429143045 -10.326095138184133 
0.688012 0.9616814922007648 0.048204399999999994 -31.65699789728198 6.3959697119261225 -77.22399705818592 8.865330264356322 10.938900564291323 3.4164800461908302 1.4838400276084642 48.24450161744063 19.27919930979064 -3.001292910226442 -31.93330978506026 -0.4060602956859587 -0.06813959466606037 7.454209766737102 0.6287220080291414 1.352160063547848 8.846750442266595 -0.770319993733998 70.54082771005768 -29.56094602969388 -17.626389153295936 4.77145019897361 26.056599655255656 9.940919426545957 -60.54973627518976 0.8757364930537401 0.7532998560134138 -29.81679808581339 7.18651928523867 -53.806000224596445 5.992559956524952 -62.550701664247526 2.040970020469942 179.55500452415166 44.15499756888178 -162.2149983725652 27.662819383874414 29.130705583685607 -9.818203979049276 
0.690885 0.9657834922007649 0.0509888 -32.99619991803555 6.844280277157311 -76.82770265235261 9.486410464642983 12.610001113609677 2.9772999497760684 1.450510091840977 46.99630162209373 19.487800117232002 -2.4708873131531086 -31.245455094126616 -0.29336849764181583 1.6867500068107335 9.429830031332243 -0.006429820189483665 1.290810023762324 8.569460129889709 -0.7285049886657982 71.07026299338206 -28.09160158449489 -16.375595393611718 4.7973600947032295 25.525600258611355 11.417799277946767 -60.423664643489666 -0.7367415564745988 0.25090366410711273 -29.537101839301368 7.756409779017024 -54.36380128354387 3.1013598773221833 -66.01450232822526 -2.5456699871585204 179.73499366915985 51.25560075832451 -167.71200291848317 25.054324036069644 27.935483950635906 -8.598869216908492 
0.695845 0.9707314922007648 0.053725699999999994 -34.773698592923424 7.695939552973962 -76.66420158400084 10.471999931686652 14.702398829991818 2.4944301214484965 1.4248899455425534 45.471198927605336 20.008699371641146 -1.8189688087638405 -30.28639066672469 -0.16382628940992097 4.316049897383948 11.912298997440166 -0.8193129940113524 0.6624439859828166 8.353340137945812 -0.5162330079064098 72.15634503368412 -24.87966243861408 -15.042002665714021 4.526730070540753 24.290500566092533 14.158699550359524 -59.98841766881977 -2.2732344451776334 -0.689638063998105 -29.850498239178233 8.418690534150848 -55.51369778126137 0.8050119652715209 -69.01729937417298 -6.812910072073088 -179.8129944294814 62.64760155800249 -173.93699634689776 23.145861606488655 26.838485560492867 -7.704300558291704 
0.7038460000000001 0.9759694922007649 0.0559276 -36.26819862483557 8.804289717517564 -76.69129694443828 11.48919951420914 16.253101073489418 1.9715998444949419 1.4170500623141424 43.9625979701517 20.854298989003528 -1.021842937219334 -29.083205033102754 -0.02192358988968519 7.267559479740871 14.438799631806223 -1.7683100427417964 -0.07650839733843089 8.033959638582369 -0.30665599034184093 73.52307954698202 -20.13988852257687 -14.234294376545932 3.6275002347022554 21.993801646351557 18.481600554367816 -59.41839740144719 -3.56734227637031 -1.9284663461126652 -30.150101072026256 9.218509954827573 -56.855201575765236 -0.5546600257028718 -71.00370279992029 -9.801210468394284 -178.89600055227214 77.74570056736982 -178.98999761562987 22.591975953482933 25.62570863372894 -7.280792971257771 
0.714191 0.9805214922007648 0.0570106 -37.02049956568287 9.729869996287148 -76.81449989668697 12.162699708828358 16.76550015747648 1.6067398902127348 1.4141699636402185 42.739099353938144 21.594198013865377 -0.3031901495857355 -27.82649974469189 0.08984414825978905 9.30726997063918 16.77229961079523 -2.6148598034507495 -0.04123860113527425 7.605900584240269 -0.33276900415798977 74.1665789894456 -17.37538140884526 -14.049367858541483 2.5081999962586536 21.016200085542216 23.201899893534023 -59.16419825110682 -4.994884469744944 -3.0968660397351377 -29.75980015718963 10.289599729901461 -58.16550165104589 -1.116020040094703 -71.59799755960309 -11.266700125580453 -2.990570153559757 83.77599945349321 1.5947799088109251 22.308782650115866 23.3643969240778 -6.760569905576458 
